<svg xmlns="http://www.w3.org/2000/svg" width="291.071" height="66.617" viewBox="0 0 291.071 66.617">
  <g id="Group_413" data-name="Group 413" transform="translate(-602.452 -41)">
    <g id="Group_5" data-name="Group 5" transform="translate(602.452 41)">
      <g id="Group_3" data-name="Group 3" transform="translate(0 14.249)">
        <path id="Path_4" data-name="Path 4" d="M609,52.783a6.552,6.552,0,0,0-6.547,6.546v29.46A6.552,6.552,0,0,0,609,95.334h9.819v8.183a1.629,1.629,0,0,0,.9,1.463,1.656,1.656,0,0,0,1.718-.154l12.652-9.493h14.188a6.551,6.551,0,0,0,6.546-6.546V59.329a6.551,6.551,0,0,0-6.546-6.546Z" transform="translate(-602.452 -52.783)" fill="#c0e6ba"/>
        <g id="Group_2" data-name="Group 2" transform="translate(10.218 10.459)">
          <path id="Path_5" data-name="Path 5" d="M610.9,63.357a1.928,1.928,0,0,1,1.93-1.925l28.034.034a1.928,1.928,0,1,1,0,3.855l-28.034-.034a1.927,1.927,0,0,1-1.925-1.93Z" transform="translate(-610.902 -61.432)" fill="#013237" stroke="#000" stroke-miterlimit="10" stroke-width="1"/>
          <path id="Path_6" data-name="Path 6" d="M611.186,71.566a1.927,1.927,0,0,1,1.929-1.925l28.034.034a1.928,1.928,0,1,1,0,3.855L613.11,73.5a1.927,1.927,0,0,1-1.924-1.93Z" transform="translate(-610.842 -59.714)" fill="#013237" stroke="#000" stroke-miterlimit="10" stroke-width="1"/>
          <path id="Path_7" data-name="Path 7" d="M611.186,79.775a1.927,1.927,0,0,1,1.929-1.925l28.034.034a1.928,1.928,0,1,1,0,3.855l-28.034-.034a1.927,1.927,0,0,1-1.924-1.93Z" transform="translate(-610.842 -57.997)" fill="#013237" stroke="#000" stroke-miterlimit="10" stroke-width="1"/>
        </g>
      </g>
      <g id="Group_4" data-name="Group 4" transform="translate(26.103)">
        <path id="Path_8" data-name="Path 8" d="M624.038,61.459c0,11.3,11.273,20.46,25.181,20.46a30.125,30.125,0,0,0,10.239-1.761,29.082,29.082,0,0,0,5.341,3.01,20.781,20.781,0,0,0,8.027,1.9,1.577,1.577,0,0,0,1.121-2.686h0l-.029-.029c-.029-.029-.069-.069-.128-.138-.108-.118-.276-.3-.481-.561a18.786,18.786,0,0,1-1.5-2.125,14.328,14.328,0,0,1-2.105-6.186A17.883,17.883,0,0,0,674.4,61.459C674.4,50.158,663.128,41,649.219,41S624.038,50.158,624.038,61.459Z" transform="translate(-624.038 -41)" fill="#c1e1e9"/>
        <path id="Path_9" data-name="Path 9" d="M643.878,47.142a1.586,1.586,0,0,1,1.96,1.09l6.339,22.185a1.587,1.587,0,0,1-3.051.872L642.789,49.1a1.586,1.586,0,0,1,1.09-1.961Zm-3.992,5.948a1.587,1.587,0,0,1,0,2.243l-4.422,4.427,4.427,4.427a1.586,1.586,0,0,1-2.243,2.243L632.1,60.884a1.587,1.587,0,0,1,0-2.243l5.547-5.546a1.587,1.587,0,0,1,2.243,0Zm15.188,0a1.587,1.587,0,0,1,2.243,0l5.546,5.546a1.587,1.587,0,0,1,0,2.243l-5.546,5.547a1.586,1.586,0,0,1-2.243-2.243L659.5,59.76l-4.427-4.427a1.587,1.587,0,0,1,0-2.243Z" transform="translate(-622.448 -39.728)" fill="#193948"/>
      </g>
    </g>
    <text id="StackCom" transform="translate(687.523 87.535)" fill="#f1f1f2" font-size="37" font-family="Montserrat-Black, Montserrat" font-weight="800"><tspan x="0" y="0">StackCom</tspan></text>
  </g>
</svg>
