<svg id="Instagram_Icon" data-name="Instagram Icon" xmlns="http://www.w3.org/2000/svg" width="51" height="51" viewBox="0 0 51 51">
  <g id="Ellipse_32" data-name="Ellipse 32" fill="none" stroke="#f1f1f2" stroke-width="2">
    <circle cx="25.5" cy="25.5" r="25.5" stroke="none"/>
    <circle cx="25.5" cy="25.5" r="24.5" fill="none"/>
  </g>
  <path id="instagram-brands-solid" d="M13.573,38.472a7,7,0,1,0,7,7A6.984,6.984,0,0,0,13.573,38.472Zm0,11.543a4.548,4.548,0,1,1,4.548-4.548,4.556,4.556,0,0,1-4.548,4.548Zm8.913-11.829a1.632,1.632,0,1,1-1.632-1.632A1.628,1.628,0,0,1,22.486,38.186Zm4.633,1.656a8.075,8.075,0,0,0-2.2-5.717,8.128,8.128,0,0,0-5.717-2.2c-2.253-.128-9-.128-11.257,0a8.116,8.116,0,0,0-5.717,2.2,8.1,8.1,0,0,0-2.2,5.717c-.128,2.253-.128,9,0,11.257a8.075,8.075,0,0,0,2.2,5.717,8.138,8.138,0,0,0,5.717,2.2c2.253.128,9,.128,11.257,0a8.075,8.075,0,0,0,5.717-2.2,8.128,8.128,0,0,0,2.2-5.717C27.247,48.84,27.247,42.094,27.12,39.842ZM24.209,53.51A4.6,4.6,0,0,1,21.616,56.1c-1.8.712-6.058.548-8.043.548s-6.253.158-8.043-.548A4.6,4.6,0,0,1,2.937,53.51c-.712-1.8-.548-6.058-.548-8.043s-.158-6.253.548-8.043a4.6,4.6,0,0,1,2.594-2.594c1.8-.712,6.058-.548,8.043-.548s6.253-.158,8.043.548a4.6,4.6,0,0,1,2.594,2.594c.712,1.8.548,6.058.548,8.043S24.922,51.72,24.209,53.51Z" transform="translate(11.93 -19.825)" fill="#f1f1f2"/>
</svg>
